# AST/ASF file generated using VICON BodyLanguage
# -----------------------------------------------
:version 1.10
:name VICON
:units
  mass 1.0
  length 0.45
  angle deg
:documentation
   .ast/.asf automatically generated from VICON data using
   VICON BodyBuilder and BodyLanguage model FoxedUp or BRILLIANT.MOD
:root
   order TX TY TZ RX RY RZ
   axis XYZ
   position 0 0 0  
   orientation 0 0 0 
:bonedata
  begin
     id 1 
     name lhipjoint
     direction 0.561145 -0.797705 0.220866 
     length 2.46425 
     axis 0 0 0  XYZ
  end
  begin
     id 2 
     name lfemur
     direction 0.34202 -0.939693 0  
     length 7.95556  
     axis 0 0 20  XYZ
    dof rx ry rz
    limits (-160.0 20.0)
           (-70.0 70.0)
           (-60.0 70.0)
  end
  begin
     id 3 
     name ltibia
     direction 0.34202 -0.939693 0   
     length 7.9832   
     axis 0 0 20   XYZ
    dof rx
    limits (-10.0 170.0)
  end
  begin
     id 4 
     name lfoot
     direction 0.0723927 -0.198897 0.977343   
     length 2.23085   
     axis -90 7.62852e-016 20   XYZ
    dof rx rz
    limits (-45.0 90.0)
           (-70.0 20.0)
  end
  begin
     id 5 
     name ltoes
     direction 1.53826e-011 -4.21988e-011 1   
     length 1.12127   
     axis -90 7.62852e-016 20   XYZ
    dof rx
    limits (-90.0 20.0)
  end
  begin
     id 6 
     name rhipjoint
     direction -0.610499 -0.763299 0.21134   
     length 2.57533  
     axis 0 0 0  XYZ 
  end
  begin
     id 7 
     name rfemur
     direction -0.34202 -0.939693 0   
     length 8.65257   
     axis 0 0 -20   XYZ
    dof rx ry rz
    limits (-160.0 20.0)
           (-70.0 70.0)
           (-70.0 60.0)
  end
  begin
     id 8 
     name rtibia
     direction -0.342021 -0.939692 0   
     length 7.37807   
     axis 0 0 -20   XYZ
    dof rx
    limits (-10.0 170.0)
 end
 begin
     id 9 
     name rfoot
     direction -0.0239304 -0.0543852 0.998233   
     length 1.87018  
     axis -90 -7.62852e-016 -20   XYZ
    dof rx rz
    limits (-45.0 90.0)
           (-20.0 70.0)
  end
  begin
     id 10 
     name rtoes
     direction -1.53584e-011 -4.2242e-011 1   
     length 0.951568   
     axis -90 -7.62852e-016 -20   XYZ
    dof rx
    limits (-90.0 20.0)
  end
  begin
     id 11 
     name lowerback
     direction 0.00322089 0.999033 0.0438587   
     length 2.07568   
     axis 0 0 0   XYZ
    dof rx ry rz
    limits (-20.0 45.0)
           (-30.0 30.0)
           (-30.0 30.0)
  end
  begin
     id 12 
     name upperback
     direction -0.00321932 0.999732 -0.0229403   
     length 2.06253   
     axis 0 0 0   XYZ
    dof rx ry rz
    limits (-20.0 45.0)
           (-30.0 30.0)
           (-30.0 30.0)
  end
  begin
     id 13 
     name thorax
     direction -0.00537537 0.998955 -0.0453918   
     length 2.06975   
     axis 0 0 0   XYZ
    dof rx ry rz
    limits (-20.0 45.0)
           (-30.0 30.0)
           (-30.0 30.0)
  end
  begin
     id 14 
     name lowerneck
     direction -0.00013604 0.994111 0.108363   
     length 1.50836   
     axis 0 0 0   XYZ
    dof rx ry rz
    limits (-20.0 45.0)
           (-30.0 30.0)
           (-30.0 30.0)
  end
  begin
     id 15 
     name upperneck
     direction 0.0397262 0.983859 -0.174482   
     length 1.53037   
     axis 0 0 0   XYZ
    dof rx ry rz
    limits (-20.0 45.0)
           (-30.0 30.0)
           (-30.0 30.0)
  end
  begin
     id 16
     name head
     direction 0.0109991 0.997082 -0.0755378  
     length 1.56928  
     axis 0 0 0   XYZ
    dof rx ry rz
    limits (-20.0 45.0)
           (-30.0 30.0)
           (-30.0 30.0)
  end
  begin
     id 17 
     name lclavicle
     direction 0.964749 0.254 -0.068874  
     length 3.26503  
     axis 0 0 0   XYZ
    dof ry rz
    limits (-20.0 10.0)
           (0.0 20.0)
  end
  begin
     id 18 
     name lhumerus
     direction 1 -4.48941e-011 -2.05079e-027   
     length 5.68236   
     axis 180 -30 -90   XYZ
    dof rx ry rz
    limits (-60.0 90.0)
           (-90.0 90.0)
           (-90.0 90.0)
  end
  begin
     id 19
     name lradius
     direction 1 -4.48956e-011 6.2882e-027   
     length 3.17112   
     axis 180 -30 -90   XYZ
    dof rx
    limits (-10.0 170.0)
  end
  begin
     id 20
     name lwrist
     direction 1 -4.49014e-011 1.73219e-026   
     length 1.58556   
     axis -1.04724e-014 90 90   XYZ
    dof ry
    limits (-180.0 0.0)
 end
  begin
     id 21 
     name lhand
     direction 1 -4.49312e-011 3.46438e-026   
     length 0.632691   
     axis -2.21057e-014 90 90   XYZ
    dof rx rz
    limits (-90.0 90.0)
           (-45.0 45.0)
  end
  begin
     id 22 
     name lfingers
     direction 1 -4.48894e-011 6.92876e-026   
     length 0.510091   
     axis -4.42114e-014 90 90   XYZ
    dof rx
    limits (0.0 90.0)
  end
  begin
     id 23
     name lthumb
     direction 0.707107 -6.34705e-011 0.707107   
     length 0.732392   
     axis -90 45 2.85299e-015   XYZ
    dof rx rz
    limits (-45.0 45.0)
           (-45.0 45.0)
  end
  begin
     id 24 
     name rclavicle
     direction -0.954374 0.280496 -0.102435   
     length 3.25419  
     axis 0 0 0   XYZ 
    dof ry rz
    limits (-10.0 20.0)
           (-20.0 0.0)
  end
  begin
     id 25 
     name rhumerus
     direction -1 -4.48994e-011 -1.07204e-017  
     length 5.8712   
     axis 180 30 90   XYZ
    dof rx ry rz
    limits (-90.0 60.0)
           (-90.0 90.0)
           (-90.0 90.0)
  end
  begin
     id 26 
     name rradius
     direction -1 -4.48972e-011 5.89292e-027   
     length 3.37589   
     axis 180 30 90   XYZ
    dof rx
    limits (-10.0 170.0)
  end
  begin
     id 27 
     name rwrist
     direction -1 -4.48942e-011 1.73219e-026   
     length 1.68794   
     axis -1.04724e-014 -90 -90   XYZ
    dof ry
    limits (-180.0 0.0)
  end
  begin
     id 28
     name rhand
     direction -1 -4.48514e-011 3.46438e-026   
     length 0.603257   
     axis -2.21057e-014 -90 -90   XYZ
    dof rx rz
    limits (-90.0 90.0)
           (-45.0 45.0)
  end
  begin
     id 29
     name rfingers
     direction -1 -4.50028e-011 6.92876e-026   
     length 0.486362   
     axis -4.42114e-014 -90 -90   XYZ
    dof rx
    limits (0.0 90.0)
  end
  begin
     id 30
     name rthumb
     direction -0.707107 -6.34926e-011 0.707107   
     length 0.698321   
     axis -90 -45 -2.85299e-015   XYZ
    dof rx rz
    limits (-45.0 45.0)
           (-45.0 45.0)
  end
:hierarchy
  begin
    root lhipjoint rhipjoint lowerback
    lhipjoint lfemur
    lfemur ltibia
    ltibia lfoot
    lfoot ltoes
    rhipjoint rfemur
    rfemur rtibia
    rtibia rfoot
    rfoot rtoes
    lowerback upperback
    upperback thorax
    thorax lowerneck lclavicle rclavicle
    lowerneck upperneck
    upperneck head
    lclavicle lhumerus
    lhumerus lradius
    lradius lwrist
    lwrist lhand lthumb
    lhand lfingers
    rclavicle rhumerus
    rhumerus rradius
    rradius rwrist
    rwrist rhand rthumb
    rhand rfingers
  end

#!OML:ASF I:\Segmentation\Patient Classification 1\Patient 1\Session 1\Patient1.ASF
:FULLY-SPECIFIED
:DEGREES
3864
root 25.8402 17.7896 -6.40844 376.251 -445.409 -1806.92
lowerback -12.3514 0.654341 -2.08535
upperback 1.17127 1.1141 0.803955
thorax 8.14012 0.424258 2.24684
lowerneck -18.0837 -0.506018 -3.45356
upperneck 22.0529 -0.0870319 0.912086
head 10.0147 -0.288853 0.8741
rclavicle -9.06955e-016 2.38542e-015
rhumerus -35.8243 -0.857546 -74.9855
rradius 50.2256
rwrist 9.47321
rhand -19.1227 33.9214
rfingers 7.12502
rthumb 7.18675 4.06345
lclavicle -9.06955e-016 2.38542e-015
lhumerus -37.9746 -13.7779 87.3376
lradius 91.539
lwrist 24.1258
lhand -17.0762 34.6074
lfingers 7.12502
lthumb 9.16179 64.3884
rfemur -20.8968 -0.7717 21.224
rtibia 52.6264
rfoot -13.616 4.20804
rtoes -30.7038
lfemur -35.5297 -2.79951 -21.4705
ltibia 45.432
lfoot -16.1818 -1.40609
ltoes -13.7365
3865
root 25.8087 17.7844 -6.38071 376.351 -445.332 -1807.12
lowerback -12.4637 0.609553 -2.18273
upperback 1.14392 1.07127 0.798064
thorax 8.1757 0.398685 2.28954
lowerneck -18.071 -0.476502 -3.44261
upperneck 22.3942 -0.075446 0.974958
head 10.1341 -0.282877 0.897021
rclavicle -3.04389e-016 -8.79622e-015
rhumerus -35.9436 -1.16754 -74.7546
rradius 49.7779
rwrist 9.69441
rhand -18.7154 33.7364
rfingers 7.12502
rthumb 7.57987 3.89224
lclavicle -3.04389e-016 -8.79622e-015
lhumerus -38.0093 -13.7118 87.2783
lradius 91.4572
lwrist 23.939
lhand -17.153 34.387
lfingers 7.12502
lthumb 9.08766 64.1712
rfemur -21.7362 -1.17831 21.0286
rtibia 54.4004
rfoot -11.8933 4.1155
rtoes -29.8177
lfemur -35.349 -2.72914 -21.5708
ltibia 45.5256
lfoot -16.2504 -1.59372
ltoes -13.3671
3866
root 25.7742 17.7819 -6.35469 375.934 -445.302 -1806.82
lowerback -12.631 0.580936 -2.31774
upperback 1.15526 1.06111 0.753951
thorax 8.28296 0.38669 2.32072
lowerneck -18.057 -0.474085 -3.40538
upperneck 22.6523 -0.10827 1.03941
head 10.2249 -0.292929 0.909812
rclavicle 1.50921e-014 -6.90777e-015
rhumerus -35.9984 -1.5684 -74.5715
rradius 49.3259
rwrist 9.91216
rhand -18.4579 33.7848
rfingers 7.12502
rthumb 7.82838 3.94978
lclavicle 1.50921e-014 -6.90777e-015
lhumerus -37.9403 -13.7571 87.1484
lradius 91.416
lwrist 23.9732
lhand -17.3171 34.4964
lfingers 7.12502
lthumb 8.92939 64.2874
rfemur -22.6093 -1.46823 20.7585
rtibia 56.2488
rfoot -9.91558 3.90299
rtoes -27.5548
lfemur -35.1331 -2.58621 -21.7245
ltibia 45.6267
lfoot -16.344 -1.83064
ltoes -13.1901
3867
root 25.7468 17.7763 -6.32923 376.723 -445.281 -1807.7
lowerback -12.6963 0.574838 -2.40325
upperback 1.11488 1.06494 0.775707
thorax 8.27469 0.384414 2.39387
lowerneck -17.9431 -0.507617 -3.44878
upperneck 22.8441 -0.167006 1.08383
head 10.2742 -0.323776 0.924973
rclavicle 8.22782e-015 -7.33018e-015
rhumerus -36.221 -1.81368 -74.303
rradius 49.0223
rwrist 10.1037
rhand -18.504 33.873
rfingers 7.12502
rthumb 7.78393 4.03632
lclavicle 8.22782e-015 -7.33018e-015
lhumerus -37.9221 -13.7638 87.081
lradius 91.4634
lwrist 24.0531
lhand -17.2026 34.6457
lfingers 7.12502
lthumb 9.03984 64.432
rfemur -23.6375 -1.64375 20.5984
rtibia 58.1626
rfoot -7.75913 3.51424
rtoes -25.5638
lfemur -34.9863 -2.43278 -21.7501
ltibia 45.7323
lfoot -16.4532 -2.12496
ltoes -13.2549
3868
root 25.7255 17.7681 -6.30308 376.8 -445.27 -1807.84
lowerback -12.6581 0.549895 -2.50853
upperback 1.02828 1.04661 0.760632
thorax 8.15888 0.373909 2.43163
lowerneck -17.9581 -0.4882 -3.38433
upperneck 23.2273 -0.165331 1.06279
head 10.4157 -0.328688 0.908064
rclavicle -2.26219e-014 1.76794e-014
rhumerus -36.4599 -2.02842 -74.069
rradius 48.7746
rwrist 10.3744
rhand -18.1931 33.5713
rfingers 7.12502
rthumb 8.08395 3.74588
lclavicle -2.26219e-014 1.76794e-014
lhumerus -38.0016 -13.7264 86.9837
lradius 91.5139
lwrist 24.015
lhand -16.978 34.4198
lfingers 7.12502
lthumb 9.25659 64.1966
rfemur -24.8057 -1.82716 20.3677
rtibia 60.1373
rfoot -5.56198 3.17278
rtoes -24.6381
lfemur -34.8766 -2.40486 -21.8267
ltibia 45.8246
lfoot -16.5524 -2.31509
ltoes -12.9453
